<?xml version="1.0" standalone="no"?>
<!DOCTYPE svg PUBLIC "-//W3C//DTD SVG 20010904//EN"
 "http://www.w3.org/TR/2001/REC-SVG-20010904/DTD/svg10.dtd">
<svg version="1.0" xmlns="http://www.w3.org/2000/svg"
 width="512.000000pt" height="512.000000pt" viewBox="0 0 512.000000 512.000000"
 preserveAspectRatio="xMidYMid meet">

<g transform="translate(0.000000,512.000000) scale(0.100000,-0.100000)"
fill="#000000" stroke="none">
<path d="M2525 5059 c-248 -48 -265 -52 -346 -83 -73 -27 -114 -54 -234 -151
-44 -36 -105 -82 -135 -103 -55 -39 -66 -46 -157 -92 -32 -16 -120 -96 -267
-242 -120 -119 -227 -220 -237 -223 -10 -4 -19 -11 -19 -16 0 -5 -15 -17 -34
-26 -79 -41 -213 -143 -284 -216 -60 -62 -90 -103 -134 -188 -32 -61 -70 -144
-84 -187 -27 -76 -27 -78 -21 -287 3 -121 12 -246 21 -295 11 -58 16 -146 16
-274 0 -207 -9 -259 -62 -346 -103 -171 -98 -153 -89 -305 2 -33 0 -123 -4
-200 l-8 -140 24 -12 c13 -7 36 -17 51 -22 18 -7 36 -27 52 -58 33 -64 90
-116 151 -137 131 -45 233 -66 434 -86 181 -19 293 -69 424 -190 53 -48 143
-177 154 -219 3 -14 31 -75 62 -136 50 -100 73 -140 159 -273 15 -23 35 -45
44 -48 9 -3 28 -28 42 -57 14 -29 52 -86 85 -127 34 -41 75 -95 93 -120 18
-25 58 -71 89 -103 l56 -57 120 0 c100 0 129 4 174 22 30 12 61 28 69 36 8 8
9 12 3 8 -7 -4 -13 -4 -13 1 0 4 -48 7 -108 6 -95 -1 -113 1 -156 23 -28 13
-64 24 -80 24 -47 1 -77 35 -150 172 -73 139 -81 178 -41 196 14 6 25 8 25 3
0 -5 13 -11 29 -14 16 -4 38 -15 48 -26 10 -11 29 -22 43 -25 43 -11 250 -13
250 -3 0 5 17 7 39 4 33 -4 40 -2 44 14 3 11 9 18 14 17 13 -4 93 45 93 57 0
6 18 26 39 43 47 38 119 129 150 190 12 23 24 63 26 88 3 25 12 52 20 60 8 9
15 21 15 27 0 7 14 39 30 72 16 33 30 66 30 74 0 8 15 42 33 75 19 34 37 81
41 104 11 74 44 91 90 46 29 -30 32 -60 15 -145 -6 -30 -13 -70 -15 -89 -3
-19 -14 -54 -24 -78 -11 -25 -20 -61 -20 -82 0 -23 -5 -40 -14 -43 -7 -3 -17
-23 -20 -44 -12 -66 -17 -78 -27 -62 -7 11 -9 10 -9 -4 0 -10 -13 -26 -30 -35
-22 -13 -28 -22 -24 -38 3 -12 1 -25 -5 -28 -17 -11 -13 -41 9 -66 20 -23 19
-50 -1 -75 -4 -6 -12 -38 -17 -70 -5 -33 -15 -61 -21 -63 -6 -2 -11 -12 -11
-23 0 -15 15 -5 64 43 51 50 70 78 96 140 17 42 49 105 70 140 61 98 200 384
221 453 6 22 17 47 23 55 7 8 18 33 25 55 26 77 119 261 160 314 22 30 41 57
41 60 0 22 95 34 325 42 138 5 260 13 273 19 13 5 32 10 43 10 22 0 139 77
139 91 0 5 6 9 13 9 24 0 173 126 210 178 l37 52 0 131 c0 71 -4 149 -9 172
-5 23 -17 78 -26 122 -24 113 -36 150 -45 135 -5 -8 -16 -9 -31 -5 -22 7 -22
8 -4 21 10 7 21 11 26 9 4 -3 2 8 -4 25 -12 31 -27 40 -27 18 -1 -7 -9 1 -18
18 -9 17 -30 50 -45 73 -38 57 -45 96 -21 122 18 20 18 22 1 51 -9 16 -17 34
-17 38 0 5 -9 34 -21 65 -16 43 -30 62 -59 80 -21 13 -47 38 -56 55 -10 16
-24 30 -31 30 -16 0 -43 63 -43 99 -1 41 -32 99 -102 192 -64 84 -116 176
-197 351 -45 96 -99 186 -127 208 -22 19 -82 101 -156 212 -32 48 -63 90 -68
93 -12 8 -84 102 -121 160 -33 51 -380 413 -439 459 -25 18 -72 48 -104 65
l-59 31 -171 -1 c-125 -1 -198 -6 -271 -20z m-495 -490 c0 -5 -6 -9 -14 -9 -8
0 -21 -3 -30 -6 -11 -4 -16 0 -16 13 0 16 5 19 30 15 17 -2 30 -8 30 -13z
m-40 -149 c0 -12 -48 -25 -58 -16 -8 9 18 26 41 26 9 0 17 -4 17 -10z m1235
-273 c6 -5 -3 -3 -20 3 -38 14 -66 40 -59 52 4 5 20 -3 38 -19 17 -15 36 -32
41 -36z m-1369 -11 c12 -11 31 -37 43 -58 l22 -36 -32 -7 c-24 -6 -34 -3 -41
9 -24 43 -78 -1 -78 -64 0 -45 -8 -56 -53 -75 -46 -19 -47 -19 -47 3 0 23 35
88 71 132 22 26 29 45 29 76 0 59 39 68 86 20z m-354 -158 c4 -144 -3 -188
-38 -223 -23 -22 -36 -1 -22 34 5 14 12 69 15 121 3 52 10 103 15 113 17 33
28 17 30 -45z m-201 -21 c-8 -8 -11 -7 -11 4 0 20 13 34 18 19 3 -7 -1 -17 -7
-23z m317 -37 c-4 -58 -9 -73 -29 -89 -13 -11 -25 -19 -25 -18 -4 5 19 135 27
155 5 12 14 22 20 22 8 0 10 -21 7 -70z m18 -206 c-3 -9 -6 -22 -6 -29 0 -15
-60 -56 -72 -49 -14 9 -9 19 26 57 35 38 63 50 52 21z m85 -71 c0 -10 2 -36 5
-58 7 -56 7 -57 -1 -87 -6 -24 -4 -28 14 -28 12 0 21 6 21 14 0 19 57 66 80
66 10 0 26 -7 35 -16 45 -46 87 -65 125 -59 26 4 40 13 43 26 6 24 27 25 27 1
0 -14 9 -19 39 -20 32 -2 46 3 74 28 42 36 44 36 67 7 17 -21 28 -24 101 -26
85 -2 103 -6 94 -22 -4 -5 -1 -10 4 -10 6 -1 23 -3 39 -4 15 -2 51 -8 80 -15
30 -6 63 -10 75 -8 14 2 31 -6 45 -22 21 -23 24 -24 36 -7 7 9 22 17 33 17 11
0 46 28 81 65 33 36 68 65 78 65 9 0 25 12 36 26 20 25 23 25 147 24 69 0 137
0 150 0 27 0 38 -11 47 -49 10 -34 54 -111 65 -111 5 0 8 10 7 23 -1 13 11 40
27 61 26 34 32 37 68 33 43 -5 53 -13 59 -41 7 -41 50 -24 52 20 1 27 26 48
26 22 0 -7 14 -33 30 -57 48 -71 48 -82 -4 -135 -42 -44 -49 -47 -93 -46 -26
0 -61 -2 -77 -6 -17 -4 -31 -2 -35 4 -8 14 -51 4 -51 -12 0 -12 -108 -66 -131
-66 -23 1 -50 27 -44 42 4 11 -2 17 -21 21 -36 6 -75 -36 -67 -73 4 -21 0 -26
-16 -27 -18 -2 -21 4 -21 39 0 68 -47 100 -85 58 -19 -21 -40 -16 -82 23 -13
11 -23 16 -24 11 -1 -5 -3 -53 -4 -107 -3 -78 -7 -102 -23 -122 -23 -28 -19
-58 10 -87 19 -19 20 -18 70 19 72 52 94 74 102 101 4 13 19 27 33 33 28 10
39 12 30 3 -3 -3 3 -15 13 -27 10 -12 28 -33 39 -46 12 -13 21 -27 21 -31 0
-4 9 -10 19 -13 11 -3 27 -21 35 -41 8 -20 20 -36 25 -36 6 0 24 -14 41 -31
22 -24 30 -41 30 -68 0 -56 -10 -81 -27 -74 -9 4 -21 -1 -29 -11 -7 -10 -17
-15 -23 -12 -5 4 -13 1 -16 -5 -11 -18 -131 -69 -162 -69 -87 -1 -274 -75
-331 -132 -52 -52 -112 -140 -112 -165 0 -12 -8 -46 -19 -75 -13 -36 -19 -83
-20 -148 -1 -52 -6 -99 -11 -104 -6 -6 -10 -24 -10 -41 0 -17 -7 -41 -16 -53
-8 -12 -10 -22 -5 -22 7 0 11 -27 11 -67 0 -36 -3 -64 -6 -60 -3 3 -18 -5 -32
-18 -18 -17 -23 -27 -16 -37 6 -7 17 -32 24 -56 7 -24 22 -48 32 -53 14 -7 18
-22 18 -61 0 -50 -3 -55 -50 -100 -48 -45 -54 -48 -105 -48 -86 0 -104 32 -86
151 13 81 44 145 75 155 19 6 19 7 2 19 -12 9 -19 32 -22 72 -3 32 -12 76 -21
97 -8 24 -16 88 -19 160 -4 121 -15 179 -37 193 -23 15 -47 62 -47 93 0 19 -5
30 -14 30 -8 0 -27 10 -43 23 -49 40 -162 97 -194 97 -17 0 -45 6 -62 14 -18
8 -59 16 -91 19 -38 2 -63 9 -70 19 -7 9 -23 18 -36 20 -21 2 -25 8 -22 34 2
19 -3 38 -12 47 -9 9 -16 22 -16 30 0 9 -6 18 -12 21 -10 5 -10 7 0 12 6 3 12
14 12 25 0 10 6 19 13 19 7 0 17 15 22 33 9 28 14 32 43 32 26 0 32 4 32 21 0
25 24 49 40 39 5 -3 14 5 19 18 8 21 18 25 72 31 55 5 109 23 171 57 10 5 25
9 33 9 18 0 35 39 35 82 0 44 -57 93 -118 102 -132 19 -154 24 -161 35 -10 15
-25 -1 -45 -51 -11 -25 -23 -37 -42 -41 -36 -6 -47 -2 -59 26 -17 39 -61 31
-103 -19 -20 -24 -42 -44 -48 -44 -7 0 -14 -5 -16 -11 -3 -10 -51 -22 -98 -23
-22 -1 -25 3 -28 42 -2 28 -8 42 -18 42 -8 0 -14 -3 -14 -8 0 -10 -73 -32
-109 -32 -18 0 -34 -8 -44 -22 -12 -19 -18 -21 -28 -10 -11 10 -11 21 0 59 6
26 18 55 25 63 7 8 21 37 31 63 18 48 64 97 91 97 10 0 14 -13 14 -44 0 -40 2
-44 28 -49 40 -8 52 8 52 72 0 69 8 101 25 101 16 0 25 -22 25 -60 0 -40 22
-55 40 -27 35 54 44 124 14 113 -46 -18 24 82 78 110 16 8 26 19 23 24 -4 6 1
10 9 10 9 0 16 -8 17 -17z m2312 -105 c4 -12 4 -24 1 -27 -6 -7 -24 20 -24 37
0 21 17 13 23 -10z m-2905 -40 c-3 -7 -11 -13 -18 -13 -7 0 -15 6 -17 13 -3 7
4 12 17 12 13 0 20 -5 18 -12z m17 -108 c-22 -24 -96 -30 -75 -6 11 14 34 22
74 25 18 1 19 0 1 -19z m-141 -265 c3 -8 3 -23 -1 -32 -8 -24 -39 -53 -47 -46
-8 8 -8 78 1 86 12 12 41 7 47 -8z m3347 -55 c5 0 9 -6 9 -13 0 -8 9 -22 20
-32 25 -23 25 -32 -1 -45 -24 -13 -43 -2 -65 41 -16 32 -9 63 13 55 8 -3 19
-6 24 -6z m-3311 -194 c-39 -112 -42 -118 -51 -104 -5 7 -6 22 -3 32 6 17 2
18 -40 14 -25 -3 -46 -3 -46 1 1 10 68 79 95 97 14 9 34 31 43 48 l17 31 3
-29 c2 -16 -6 -56 -18 -90z m3337 -23 c-5 -112 -12 -143 -30 -143 -7 0 -8 38
-3 116 6 120 9 134 28 134 7 0 9 -34 5 -107z m-3127 0 c34 -73 36 -102 23
-358 l-8 -160 -55 3 c-30 2 -57 6 -59 8 -13 13 -15 95 -4 139 7 28 16 78 19
113 4 40 11 62 20 62 7 0 15 -6 18 -12 3 -7 4 42 2 110 -4 111 -3 122 13 122
10 0 24 -12 31 -27z m3011 -49 c5 -15 7 -30 3 -33 -8 -8 -45 39 -38 50 10 17
24 9 35 -17z m251 -161 c-5 -48 -45 -148 -63 -159 -16 -9 -23 4 -11 19 6 7 15
46 20 87 6 41 15 89 22 105 11 28 13 29 24 12 9 -11 12 -34 8 -64z m-1167 -14
c6 -6 -1 -19 -18 -37 l-27 -27 -188 -2 c-103 -1 -180 0 -172 3 8 3 24 9 35 14
32 14 96 32 150 41 28 4 68 12 90 18 43 10 114 5 130 -10z m-2005 -131 c0 -18
-2 -20 -9 -8 -6 8 -7 18 -5 22 9 14 14 9 14 -14z m-702 -23 c-3 -3 -9 2 -12
12 -6 14 -5 15 5 6 7 -7 10 -15 7 -18z m1234 2 c26 -12 48 -25 48 -29 0 -5
-52 -8 -115 -8 -98 0 -114 2 -109 15 4 8 1 15 -5 15 -27 0 -8 19 22 22 90 9
114 6 159 -15z m2538 -52 c0 -17 -45 -63 -56 -58 -21 8 -17 30 8 47 22 16 48
21 48 11z m-1459 -132 c8 -21 6 -23 -30 -23 -23 0 -48 8 -61 18 l-23 19 33 48
34 49 19 -45 c10 -24 23 -54 28 -66z m-2151 59 c0 -13 -12 -22 -22 -16 -10 6
-1 24 13 24 5 0 9 -4 9 -8z m3570 -57 c0 -14 -4 -25 -10 -25 -5 0 -29 -17 -51
-37 -39 -35 -41 -36 -34 -13 24 76 39 100 67 100 23 0 28 -4 28 -25z m-2309 5
c34 -19 24 -57 -21 -80 -46 -23 -57 -25 -41 -7 6 8 9 16 6 19 -6 6 23 78 31
78 3 0 14 -5 25 -10z m1467 -17 c13 -13 17 -35 16 -98 0 -85 -20 -158 -35
-133 -10 16 -15 1 -23 -62 -4 -25 -7 -54 -9 -65 -1 -11 -6 -26 -11 -34 -5 -8
-10 -24 -12 -35 -9 -67 -44 -167 -74 -208 -19 -27 -37 -48 -42 -48 -4 0 -8 -6
-8 -14 0 -7 -9 -16 -21 -19 -27 -7 -128 4 -135 14 -3 5 -19 9 -37 9 -30 0 -95
37 -129 73 -9 10 -20 18 -25 18 -17 -1 -43 11 -43 19 0 5 -25 17 -55 25 -38
12 -61 25 -75 46 -12 16 -27 29 -34 29 -14 0 -17 13 -17 63 1 17 1 46 1 62 0
17 5 47 11 67 9 29 9 41 -1 53 -30 36 30 98 73 74 25 -15 171 -21 227 -10 142
27 165 36 209 76 24 22 54 50 68 63 14 12 37 22 54 22 17 0 37 7 45 15 20 20
61 19 82 -2z m1022 7 c0 -5 -4 -10 -10 -10 -5 0 -10 5 -10 10 0 6 5 10 10 10
6 0 10 -4 10 -10z m-1791 -44 c25 -58 19 -88 -18 -80 -44 11 -54 24 -47 68 4
21 9 43 12 48 12 20 35 5 53 -36z m-1615 18 c8 -22 1 -30 -32 -37 -27 -5 -29
-10 -28 -44 1 -33 -2 -38 -19 -35 -43 8 -39 64 6 83 17 6 34 20 40 30 12 23
25 24 33 3z m632 -16 l17 -33 -22 19 c-11 11 -21 25 -21 33 0 21 8 15 26 -19z
m-918 -20 c-3 -7 -13 -15 -24 -17 -16 -3 -17 -1 -5 13 16 19 34 21 29 4z
m3109 -113 c2 -102 -1 -107 -53 -93 -24 6 -33 15 -37 35 -3 16 -1 33 3 38 5 6
16 33 25 60 37 108 59 93 62 -40z m-1761 48 c-2 -3 -9 -2 -15 2 -8 4 -7 13 1
28 l13 22 3 -23 c2 -13 1 -26 -2 -29z m2536 -30 c32 -29 16 -93 -24 -93 -38 0
-54 80 -20 99 23 14 23 14 44 -6z m-3734 -44 c3 -31 -2 -40 -26 -57 -15 -11
-41 -24 -57 -28 -27 -7 -28 -6 -20 22 5 16 8 38 8 50 -1 23 42 53 72 51 15 -2
21 -10 23 -38z m699 -29 c50 -28 59 -30 162 -30 76 0 114 4 123 13 21 20 89
36 138 33 44 -4 45 -5 51 -42 4 -22 3 -47 -2 -56 -5 -9 -9 -33 -9 -52 0 -20
-4 -36 -10 -36 -6 0 -10 -29 -10 -66 0 -40 4 -63 10 -59 23 14 -7 -34 -54 -87
-28 -31 -60 -68 -71 -82 -11 -14 -29 -27 -40 -29 -11 -2 -30 -9 -42 -15 -13
-7 -23 -10 -23 -7 0 4 -7 -1 -16 -9 -10 -10 -33 -16 -62 -16 -52 0 -65 6 -75
33 -4 10 -12 15 -18 12 -6 -4 -13 2 -16 14 -3 12 -13 21 -24 21 -11 0 -19 7
-19 15 0 8 -4 15 -10 15 -5 0 -14 19 -20 43 -22 84 -32 113 -58 167 -20 42
-27 74 -29 133 -3 74 -2 78 21 87 13 5 27 14 31 19 9 15 12 14 72 -19z m2223
-150 c0 -16 -4 -30 -10 -30 -5 0 -10 14 -10 30 0 17 5 30 10 30 6 0 10 -13 10
-30z m-2960 -68 c0 -22 -5 -28 -22 -28 -13 0 -26 4 -30 10 -10 16 11 46 32 46
15 0 20 -7 20 -28z m-236 -84 c11 -88 19 -124 33 -145 10 -15 12 -27 5 -38 -7
-14 -16 -8 -50 35 -41 51 -42 55 -42 125 0 39 3 75 6 78 16 16 42 -15 48 -55z
m174 -11 c4 -29 -25 -51 -52 -41 -22 8 -20 24 7 51 27 27 41 24 45 -10z m112
-51 c-18 -23 -30 -20 -30 7 0 32 11 40 29 23 12 -12 12 -18 1 -30z m1697 -62
c-3 -3 -12 -4 -19 -1 -8 3 -5 6 6 6 11 1 17 -2 13 -5z m23 -24 c0 -5 -4 -10
-10 -10 -5 0 -10 5 -10 10 0 6 5 10 10 10 6 0 10 -4 10 -10z m216 -5 c29 -8
43 -71 19 -89 -11 -8 -18 -36 -23 -96 -7 -85 -7 -85 -42 -102 -19 -9 -51 -19
-70 -22 -66 -8 -199 -37 -241 -51 -48 -17 -139 -13 -229 10 -30 8 -76 17 -102
20 -32 4 -57 15 -77 34 l-30 28 26 36 25 36 67 -4 c36 -3 80 -10 96 -16 48
-19 140 -3 164 27 21 26 78 54 111 54 11 0 23 7 26 15 4 8 17 15 31 15 14 0
36 9 50 20 14 11 34 20 44 20 9 0 19 3 21 8 8 19 84 71 98 68 8 -3 25 -7 36
-11z m-1859 -108 c9 -57 -2 -85 -31 -80 -41 8 -45 73 -8 116 19 22 31 11 39
-36z m813 -257 c10 0 22 -10 26 -22 3 -12 19 -32 35 -46 16 -13 29 -29 29 -36
0 -7 9 -21 20 -31 11 -10 20 -23 20 -29 1 -6 11 -32 23 -58 28 -61 26 -133 -5
-141 -16 -5 -18 -11 -13 -41 4 -20 4 -43 1 -52 -6 -15 -8 -15 -27 2 -25 23
-59 86 -59 111 0 9 -11 28 -24 42 -23 25 -78 147 -92 204 -3 15 -10 30 -15 33
-26 16 19 81 49 69 7 -3 22 -5 32 -5z m1060 -19 c0 -13 -23 -29 -49 -33 -17
-2 -27 -13 -35 -38 -10 -32 -15 -35 -53 -38 -29 -2 -46 -9 -53 -22 -17 -32
-41 -50 -66 -50 -14 0 -36 -7 -49 -16 -20 -13 -31 -14 -56 -5 -44 15 -70 14
-108 -5 -22 -11 -44 -14 -69 -9 -20 3 -54 7 -75 8 -27 1 -45 9 -58 26 -14 17
-26 22 -46 18 -36 -7 -73 34 -73 83 0 18 6 21 43 20 23 -1 69 4 102 11 33 7
96 14 140 15 44 2 116 6 160 9 44 4 112 8 150 10 39 2 90 8 115 13 61 13 80
14 80 3z m-490 -477 c0 -8 -6 -14 -14 -14 -9 0 -12 7 -9 20 6 22 23 18 23 -6z
m210 -19 c0 -24 -41 -38 -74 -25 -23 9 -26 13 -16 25 17 21 90 20 90 0z m-127
-122 c-7 -2 -19 -2 -25 0 -7 3 -2 5 12 5 14 0 19 -2 13 -5z"/>
<path d="M2393 3242 c-7 -4 -15 -37 -18 -72 -8 -86 10 -117 80 -137 105 -31
140 -13 152 74 6 42 -18 92 -44 93 -6 0 -20 10 -30 23 -14 19 -29 24 -73 25
-30 1 -60 -1 -67 -6z"/>
<path d="M3010 690 c0 -5 7 -10 15 -10 8 0 15 5 15 10 0 6 -7 10 -15 10 -8 0
-15 -4 -15 -10z"/>
<path d="M2976 644 c-3 -9 -6 -27 -6 -41 0 -22 1 -23 16 -9 8 9 18 16 22 16 4
0 13 4 21 9 12 8 12 12 -2 25 -20 20 -43 20 -51 0z"/>
</g>
</svg>
