<?xml version="1.0" encoding="UTF-8"?>
<svg xmlns="http://www.w3.org/2000/svg" xmlns:xlink="http://www.w3.org/1999/xlink" width="128px" height="128px" viewBox="0 0 128 128" version="1.1">
<g id="surface1">
<path style=" stroke:none;fill-rule:nonzero;fill:rgb(0%,0%,0%);fill-opacity:1;" d="M 63.125 1.523438 C 56.925781 2.726562 56.5 2.824219 54.476562 3.601562 C 52.648438 4.273438 51.625 4.949219 48.625 7.375 C 47.523438 8.273438 46 9.425781 45.25 9.949219 C 43.875 10.925781 43.601562 11.101562 41.324219 12.25 C 40.523438 12.648438 38.324219 14.648438 34.648438 18.300781 C 31.648438 21.273438 28.976562 23.800781 28.726562 23.875 C 28.476562 23.976562 28.25 24.148438 28.25 24.273438 C 28.25 24.398438 27.875 24.699219 27.398438 24.925781 C 25.425781 25.949219 22.074219 28.5 20.300781 30.324219 C 18.800781 31.875 18.050781 32.898438 16.949219 35.023438 C 16.148438 36.550781 15.199219 38.625 14.851562 39.699219 C 14.175781 41.601562 14.175781 41.648438 14.324219 46.875 C 14.398438 49.898438 14.625 53.023438 14.851562 54.25 C 15.125 55.699219 15.25 57.898438 15.25 61.101562 C 15.25 66.273438 15.023438 67.574219 13.699219 69.75 C 11.125 74.023438 11.25 73.574219 11.476562 77.375 C 11.523438 78.199219 11.476562 80.449219 11.375 82.375 L 11.175781 85.875 L 11.773438 86.175781 C 12.101562 86.351562 12.675781 86.601562 13.050781 86.726562 C 13.5 86.898438 13.949219 87.398438 14.351562 88.175781 C 15.175781 89.773438 16.601562 91.074219 18.125 91.601562 C 21.398438 92.726562 23.949219 93.25 28.976562 93.75 C 33.5 94.226562 36.300781 95.476562 39.574219 98.5 C 40.898438 99.699219 43.148438 102.925781 43.425781 103.976562 C 43.5 104.324219 44.199219 105.851562 44.976562 107.375 C 46.226562 109.875 46.800781 110.875 48.949219 114.199219 C 49.324219 114.773438 49.824219 115.324219 50.050781 115.398438 C 50.273438 115.476562 50.75 116.101562 51.101562 116.824219 C 51.449219 117.550781 52.398438 118.976562 53.226562 120 C 54.074219 121.023438 55.101562 122.375 55.550781 123 C 56 123.625 57 124.773438 57.773438 125.574219 L 59.175781 127 L 62.175781 127 C 64.675781 127 65.398438 126.898438 66.523438 126.449219 C 67.273438 126.148438 68.050781 125.75 68.25 125.550781 C 68.449219 125.351562 68.476562 125.25 68.324219 125.351562 C 68.148438 125.449219 68 125.449219 68 125.324219 C 68 125.226562 66.800781 125.148438 65.300781 125.175781 C 62.925781 125.199219 62.476562 125.148438 61.398438 124.601562 C 60.699219 124.273438 59.800781 124 59.398438 124 C 58.226562 123.976562 57.476562 123.125 55.648438 119.699219 C 53.824219 116.226562 53.625 115.25 54.625 114.800781 C 54.976562 114.648438 55.25 114.601562 55.25 114.726562 C 55.25 114.851562 55.574219 115 55.976562 115.074219 C 56.375 115.175781 56.925781 115.449219 57.175781 115.726562 C 57.425781 116 57.898438 116.273438 58.25 116.351562 C 59.324219 116.625 64.5 116.675781 64.5 116.425781 C 64.5 116.300781 64.925781 116.25 65.476562 116.324219 C 66.300781 116.425781 66.476562 116.375 66.574219 115.976562 C 66.648438 115.699219 66.800781 115.523438 66.925781 115.550781 C 67.25 115.648438 69.25 114.425781 69.25 114.125 C 69.25 113.976562 69.699219 113.476562 70.226562 113.050781 C 71.398438 112.101562 73.199219 109.824219 73.976562 108.300781 C 74.273438 107.726562 74.574219 106.726562 74.625 106.101562 C 74.699219 105.476562 74.925781 104.800781 75.125 104.601562 C 75.324219 104.375 75.5 104.074219 75.5 103.925781 C 75.5 103.75 75.851562 102.949219 76.25 102.125 C 76.648438 101.300781 77 100.476562 77 100.273438 C 77 100.074219 77.375 99.226562 77.824219 98.398438 C 78.300781 97.550781 78.75 96.375 78.851562 95.800781 C 79.125 93.949219 79.949219 93.523438 81.101562 94.648438 C 81.824219 95.398438 81.898438 96.148438 81.476562 98.273438 C 81.324219 99.023438 81.148438 100.023438 81.101562 100.5 C 81.023438 100.976562 80.75 101.851562 80.5 102.449219 C 80.226562 103.074219 80 103.976562 80 104.5 C 80 105.074219 79.875 105.5 79.648438 105.574219 C 79.476562 105.648438 79.226562 106.148438 79.148438 106.675781 C 78.851562 108.324219 78.726562 108.625 78.476562 108.226562 C 78.300781 107.949219 78.25 107.976562 78.25 108.324219 C 78.25 108.574219 77.925781 108.976562 77.5 109.199219 C 76.949219 109.523438 76.800781 109.75 76.898438 110.148438 C 76.976562 110.449219 76.925781 110.773438 76.773438 110.851562 C 76.351562 111.125 76.449219 111.875 77 112.5 C 77.5 113.074219 77.476562 113.75 76.976562 114.375 C 76.875 114.523438 76.675781 115.324219 76.550781 116.125 C 76.425781 116.949219 76.175781 117.648438 76.023438 117.699219 C 75.875 117.75 75.75 118 75.75 118.273438 C 75.75 118.648438 76.125 118.398438 77.351562 117.199219 C 78.625 115.949219 79.101562 115.25 79.75 113.699219 C 80.175781 112.648438 80.976562 111.074219 81.5 110.199219 C 83.023438 107.75 86.5 100.601562 87.023438 98.875 C 87.175781 98.324219 87.449219 97.699219 87.601562 97.5 C 87.773438 97.300781 88.050781 96.675781 88.226562 96.125 C 88.875 94.199219 91.199219 89.601562 92.226562 88.273438 C 92.773438 87.523438 93.25 86.851562 93.25 86.773438 C 93.25 86.226562 95.625 85.925781 101.375 85.726562 C 104.824219 85.601562 107.875 85.398438 108.199219 85.25 C 108.523438 85.125 109 85 109.273438 85 C 109.824219 85 112.75 83.074219 112.75 82.726562 C 112.75 82.601562 112.898438 82.5 113.074219 82.5 C 113.675781 82.5 117.398438 79.351562 118.324219 78.050781 L 119.25 76.75 L 119.25 73.476562 C 119.25 71.699219 119.148438 69.75 119.023438 69.175781 C 118.898438 68.601562 118.601562 67.226562 118.375 66.125 C 117.773438 63.300781 117.476562 62.375 117.25 62.75 C 117.125 62.949219 116.851562 62.976562 116.476562 62.875 C 115.925781 62.699219 115.925781 62.675781 116.375 62.351562 C 116.625 62.175781 116.898438 62.074219 117.023438 62.125 C 117.125 62.199219 117.074219 61.925781 116.925781 61.5 C 116.625 60.726562 116.25 60.5 116.25 61.050781 C 116.226562 61.226562 116.023438 61.023438 115.800781 60.601562 C 115.574219 60.175781 115.050781 59.351562 114.675781 58.773438 C 113.726562 57.351562 113.550781 56.375 114.148438 55.726562 C 114.601562 55.226562 114.601562 55.175781 114.175781 54.449219 C 113.949219 54.050781 113.75 53.601562 113.75 53.5 C 113.75 53.375 113.523438 52.648438 113.226562 51.875 C 112.824219 50.800781 112.476562 50.324219 111.75 49.875 C 111.226562 49.550781 110.574219 48.925781 110.351562 48.5 C 110.101562 48.101562 109.75 47.75 109.574219 47.75 C 109.175781 47.75 108.5 46.175781 108.5 45.273438 C 108.476562 44.25 107.699219 42.800781 105.949219 40.476562 C 104.351562 38.375 103.050781 36.074219 101.023438 31.699219 C 99.898438 29.300781 98.550781 27.050781 97.851562 26.5 C 97.300781 26.023438 95.800781 23.976562 93.949219 21.199219 C 93.148438 20 92.375 18.949219 92.25 18.875 C 91.949219 18.675781 90.148438 16.324219 89.226562 14.875 C 88.398438 13.601562 79.726562 4.550781 78.25 3.398438 C 77.625 2.949219 76.449219 2.199219 75.648438 1.773438 L 74.175781 1 L 69.898438 1.023438 C 66.773438 1.050781 64.949219 1.175781 63.125 1.523438 Z M 50.75 13.773438 C 50.75 13.898438 50.601562 14 50.398438 14 C 50.199219 14 49.875 14.074219 49.648438 14.148438 C 49.375 14.25 49.25 14.148438 49.25 13.824219 C 49.25 13.425781 49.375 13.351562 50 13.449219 C 50.425781 13.5 50.75 13.648438 50.75 13.773438 Z M 49.75 17.5 C 49.75 17.800781 48.550781 18.125 48.300781 17.898438 C 48.101562 17.675781 48.75 17.25 49.324219 17.25 C 49.550781 17.25 49.75 17.351562 49.75 17.5 Z M 80.625 24.324219 C 80.773438 24.449219 80.550781 24.398438 80.125 24.25 C 79.175781 23.898438 78.476562 23.25 78.648438 22.949219 C 78.75 22.824219 79.148438 23.023438 79.601562 23.425781 C 80.023438 23.800781 80.5 24.226562 80.625 24.324219 Z M 46.398438 24.601562 C 46.699219 24.875 47.175781 25.523438 47.476562 26.050781 L 48.023438 26.949219 L 47.226562 27.125 C 46.625 27.273438 46.375 27.199219 46.199219 26.898438 C 45.601562 25.824219 44.25 26.925781 44.25 28.5 C 44.25 29.625 44.050781 29.898438 42.925781 30.375 C 41.773438 30.851562 41.75 30.851562 41.75 30.300781 C 41.75 29.726562 42.625 28.101562 43.523438 27 C 44.074219 26.351562 44.25 25.875 44.25 25.101562 C 44.25 23.625 45.226562 23.398438 46.398438 24.601562 Z M 37.550781 28.550781 C 37.648438 32.148438 37.476562 33.25 36.601562 34.125 C 36.023438 34.675781 35.699219 34.148438 36.050781 33.273438 C 36.175781 32.925781 36.351562 31.550781 36.425781 30.25 C 36.5 28.949219 36.675781 27.675781 36.800781 27.425781 C 37.226562 26.601562 37.5 27 37.550781 28.550781 Z M 32.523438 29.074219 C 32.324219 29.273438 32.25 29.25 32.25 28.976562 C 32.25 28.476562 32.574219 28.125 32.699219 28.5 C 32.773438 28.675781 32.675781 28.925781 32.523438 29.074219 Z M 40.449219 30 C 40.351562 31.449219 40.226562 31.824219 39.726562 32.226562 C 39.398438 32.5 39.101562 32.699219 39.101562 32.675781 C 39 32.550781 39.574219 29.300781 39.773438 28.800781 C 39.898438 28.5 40.125 28.25 40.273438 28.25 C 40.476562 28.25 40.523438 28.773438 40.449219 30 Z M 40.898438 35.148438 C 40.824219 35.375 40.75 35.699219 40.75 35.875 C 40.75 36.25 39.25 37.273438 38.949219 37.101562 C 38.601562 36.875 38.726562 36.625 39.601562 35.675781 C 40.476562 34.726562 41.175781 34.425781 40.898438 35.148438 Z M 43.023438 36.925781 C 43.023438 37.175781 43.074219 37.824219 43.148438 38.375 C 43.324219 39.773438 43.324219 39.800781 43.125 40.550781 C 42.976562 41.148438 43.023438 41.25 43.476562 41.25 C 43.773438 41.25 44 41.101562 44 40.898438 C 44 40.425781 45.425781 39.25 46 39.25 C 46.25 39.25 46.648438 39.425781 46.875 39.648438 C 48 40.800781 49.050781 41.273438 50 41.125 C 50.648438 41.023438 51 40.800781 51.074219 40.476562 C 51.226562 39.875 51.75 39.851562 51.75 40.449219 C 51.75 40.800781 51.976562 40.925781 52.726562 40.949219 C 53.523438 41 53.875 40.875 54.574219 40.25 C 55.625 39.351562 55.675781 39.351562 56.25 40.074219 C 56.675781 40.601562 56.949219 40.675781 58.773438 40.726562 C 60.898438 40.773438 61.351562 40.875 61.125 41.273438 C 61.023438 41.398438 61.101562 41.523438 61.226562 41.523438 C 61.375 41.550781 61.800781 41.601562 62.199219 41.625 C 62.574219 41.675781 63.476562 41.824219 64.199219 42 C 64.949219 42.148438 65.773438 42.25 66.074219 42.199219 C 66.425781 42.148438 66.851562 42.351562 67.199219 42.75 C 67.726562 43.324219 67.800781 43.351562 68.101562 42.925781 C 68.273438 42.699219 68.648438 42.5 68.925781 42.5 C 69.199219 42.5 70.074219 41.800781 70.949219 40.875 C 71.773438 39.976562 72.648438 39.25 72.898438 39.25 C 73.125 39.25 73.523438 38.949219 73.800781 38.601562 C 74.300781 37.976562 74.375 37.976562 77.476562 38 C 79.199219 38 80.898438 38 81.226562 38 C 81.898438 38 82.175781 38.273438 82.398438 39.226562 C 82.648438 40.074219 83.75 42 84.023438 42 C 84.148438 42 84.226562 41.75 84.199219 41.425781 C 84.175781 41.101562 84.476562 40.425781 84.875 39.898438 C 85.523438 39.050781 85.675781 38.976562 86.574219 39.074219 C 87.648438 39.199219 87.898438 39.398438 88.050781 40.101562 C 88.226562 41.125 89.300781 40.699219 89.351562 39.601562 C 89.375 38.925781 90 38.398438 90 39.050781 C 90 39.226562 90.351562 39.875 90.75 40.476562 C 91.949219 42.25 91.949219 42.523438 90.648438 43.851562 C 89.601562 44.949219 89.425781 45.023438 88.324219 45 C 87.675781 45 86.800781 45.050781 86.398438 45.148438 C 85.976562 45.25 85.625 45.199219 85.523438 45.050781 C 85.324219 44.699219 84.25 44.949219 84.25 45.351562 C 84.25 45.648438 81.550781 47 80.976562 47 C 80.398438 46.976562 79.726562 46.324219 79.875 45.949219 C 79.976562 45.675781 79.824219 45.523438 79.351562 45.425781 C 78.449219 45.273438 77.476562 46.324219 77.675781 47.25 C 77.773438 47.773438 77.675781 47.898438 77.273438 47.925781 C 76.824219 47.976562 76.75 47.824219 76.75 46.949219 C 76.75 45.25 75.574219 44.449219 74.625 45.5 C 74.148438 46.023438 73.625 45.898438 72.574219 44.925781 C 72.25 44.648438 72 44.523438 71.976562 44.648438 C 71.949219 44.773438 71.898438 45.976562 71.875 47.324219 C 71.800781 49.273438 71.699219 49.875 71.300781 50.375 C 70.726562 51.074219 70.824219 51.824219 71.550781 52.550781 C 72.023438 53.023438 72.050781 53 73.300781 52.074219 C 75.101562 50.773438 75.648438 50.226562 75.851562 49.550781 C 75.949219 49.226562 76.324219 48.875 76.675781 48.726562 C 77.375 48.476562 77.648438 48.425781 77.425781 48.648438 C 77.351562 48.726562 77.5 49.023438 77.75 49.324219 C 78 49.625 78.449219 50.148438 78.726562 50.476562 C 79.023438 50.800781 79.25 51.148438 79.25 51.25 C 79.25 51.351562 79.476562 51.5 79.726562 51.574219 C 80 51.648438 80.398438 52.101562 80.601562 52.601562 C 80.800781 53.101562 81.101562 53.5 81.226562 53.5 C 81.375 53.5 81.824219 53.851562 82.25 54.273438 C 82.800781 54.875 83 55.300781 83 55.976562 C 83 57.375 82.75 58 82.324219 57.824219 C 82.101562 57.726562 81.800781 57.851562 81.601562 58.101562 C 81.425781 58.351562 81.175781 58.476562 81.023438 58.398438 C 80.898438 58.300781 80.699219 58.375 80.625 58.523438 C 80.351562 58.976562 77.351562 60.25 76.574219 60.25 C 74.398438 60.273438 69.726562 62.125 68.300781 63.550781 C 67 64.851562 65.5 67.050781 65.5 67.675781 C 65.5 67.976562 65.300781 68.824219 65.023438 69.550781 C 64.699219 70.449219 64.550781 71.625 64.523438 73.25 C 64.5 74.550781 64.375 75.726562 64.25 75.851562 C 64.101562 76 64 76.449219 64 76.875 C 64 77.300781 63.824219 77.898438 63.601562 78.199219 C 63.398438 78.5 63.351562 78.75 63.476562 78.75 C 63.648438 78.75 63.75 79.425781 63.75 80.425781 C 63.75 81.324219 63.675781 82.023438 63.601562 81.925781 C 63.523438 81.851562 63.148438 82.050781 62.800781 82.375 C 62.351562 82.800781 62.226562 83.050781 62.398438 83.300781 C 62.550781 83.476562 62.824219 84.101562 63 84.699219 C 63.175781 85.300781 63.550781 85.898438 63.800781 86.023438 C 64.148438 86.199219 64.25 86.574219 64.25 87.550781 C 64.25 88.800781 64.175781 88.925781 63 90.050781 C 61.800781 91.175781 61.648438 91.25 60.375 91.25 C 58.226562 91.25 57.773438 90.449219 58.226562 87.476562 C 58.550781 85.449219 59.324219 83.851562 60.101562 83.601562 C 60.574219 83.449219 60.574219 83.425781 60.148438 83.125 C 59.851562 82.898438 59.675781 82.324219 59.601562 81.324219 C 59.523438 80.523438 59.300781 79.425781 59.074219 78.898438 C 58.875 78.300781 58.675781 76.699219 58.601562 74.898438 C 58.5 71.875 58.226562 70.425781 57.675781 70.074219 C 57.101562 69.699219 56.5 68.523438 56.5 67.75 C 56.5 67.273438 56.375 67 56.148438 67 C 55.949219 67 55.476562 66.75 55.074219 66.425781 C 53.851562 65.425781 51.023438 64 50.226562 64 C 49.800781 64 49.101562 63.851562 48.675781 63.648438 C 48.226562 63.449219 47.199219 63.25 46.398438 63.175781 C 45.449219 63.125 44.824219 62.949219 44.648438 62.699219 C 44.476562 62.476562 44.074219 62.25 43.75 62.199219 C 43.226562 62.148438 43.125 62 43.199219 61.351562 C 43.25 60.875 43.125 60.398438 42.898438 60.175781 C 42.675781 59.949219 42.5 59.625 42.5 59.425781 C 42.5 59.199219 42.351562 58.976562 42.199219 58.898438 C 41.949219 58.773438 41.949219 58.726562 42.199219 58.601562 C 42.351562 58.523438 42.5 58.25 42.5 57.976562 C 42.5 57.726562 42.648438 57.5 42.824219 57.5 C 43 57.5 43.25 57.125 43.375 56.675781 C 43.601562 55.976562 43.726562 55.875 44.449219 55.875 C 45.101562 55.875 45.25 55.773438 45.25 55.351562 C 45.25 54.726562 45.851562 54.125 46.25 54.375 C 46.375 54.449219 46.601562 54.25 46.726562 53.925781 C 46.925781 53.398438 47.175781 53.300781 48.523438 53.148438 C 49.898438 53.023438 51.25 52.574219 52.800781 51.726562 C 53.050781 51.601562 53.425781 51.5 53.625 51.5 C 54.074219 51.5 54.5 50.523438 54.5 49.449219 C 54.5 48.351562 53.074219 47.125 51.550781 46.898438 C 48.25 46.425781 47.699219 46.300781 47.523438 46.023438 C 47.273438 45.648438 46.898438 46.050781 46.398438 47.300781 C 46.125 47.925781 45.824219 48.226562 45.351562 48.324219 C 44.449219 48.476562 44.175781 48.375 43.875 47.675781 C 43.449219 46.699219 42.351562 46.898438 41.300781 48.148438 C 40.800781 48.75 40.25 49.25 40.101562 49.25 C 39.925781 49.25 39.75 49.375 39.699219 49.523438 C 39.625 49.773438 38.425781 50.074219 37.25 50.101562 C 36.699219 50.125 36.625 50.023438 36.550781 49.050781 C 36.5 48.351562 36.351562 48 36.101562 48 C 35.898438 48 35.75 48.074219 35.75 48.199219 C 35.75 48.449219 33.925781 49 33.023438 49 C 32.574219 49 32.175781 49.199219 31.925781 49.550781 C 31.625 50.023438 31.476562 50.074219 31.226562 49.800781 C 30.949219 49.550781 30.949219 49.273438 31.226562 48.324219 C 31.375 47.675781 31.675781 46.949219 31.851562 46.75 C 32.023438 46.550781 32.375 45.824219 32.625 45.175781 C 33.074219 43.976562 34.226562 42.75 34.898438 42.75 C 35.148438 42.75 35.25 43.074219 35.25 43.851562 C 35.25 44.851562 35.300781 44.949219 35.949219 45.074219 C 36.949219 45.273438 37.25 44.875 37.25 43.273438 C 37.25 41.550781 37.449219 40.75 37.875 40.75 C 38.273438 40.75 38.5 41.300781 38.5 42.25 C 38.5 43.25 39.050781 43.625 39.5 42.925781 C 40.375 41.574219 40.601562 39.824219 39.851562 40.101562 C 38.699219 40.550781 40.449219 38.050781 41.800781 37.351562 C 42.199219 37.148438 42.449219 36.875 42.375 36.75 C 42.273438 36.601562 42.398438 36.5 42.601562 36.5 C 42.824219 36.5 43 36.699219 43.023438 36.925781 Z M 100.824219 39.550781 C 100.925781 39.851562 100.925781 40.148438 100.851562 40.226562 C 100.699219 40.398438 100.25 39.726562 100.25 39.300781 C 100.25 38.773438 100.675781 38.976562 100.824219 39.550781 Z M 28.199219 40.550781 C 28.125 40.726562 27.925781 40.875 27.75 40.875 C 27.574219 40.875 27.375 40.726562 27.324219 40.550781 C 27.25 40.375 27.425781 40.25 27.75 40.25 C 28.074219 40.25 28.25 40.375 28.199219 40.550781 Z M 28.625 43.25 C 28.074219 43.851562 26.226562 44 26.75 43.398438 C 27.023438 43.050781 27.601562 42.851562 28.601562 42.773438 C 29.050781 42.75 29.074219 42.773438 28.625 43.25 Z M 25.101562 49.875 C 25.175781 50.074219 25.175781 50.449219 25.074219 50.675781 C 24.875 51.273438 24.101562 52 23.898438 51.824219 C 23.699219 51.625 23.699219 49.875 23.925781 49.675781 C 24.226562 49.375 24.949219 49.5 25.101562 49.875 Z M 108.773438 51.25 C 108.898438 51.25 109 51.398438 109 51.574219 C 109 51.773438 109.226562 52.125 109.5 52.375 C 110.125 52.949219 110.125 53.175781 109.476562 53.5 C 108.875 53.824219 108.398438 53.550781 107.851562 52.476562 C 107.449219 51.675781 107.625 50.898438 108.175781 51.101562 C 108.375 51.175781 108.648438 51.25 108.773438 51.25 Z M 26 56.101562 C 25.023438 58.898438 24.949219 59.050781 24.726562 58.699219 C 24.601562 58.523438 24.574219 58.148438 24.648438 57.898438 C 24.800781 57.476562 24.699219 57.449219 23.648438 57.550781 C 23.023438 57.625 22.5 57.625 22.5 57.523438 C 22.523438 57.273438 24.199219 55.550781 24.875 55.101562 C 25.226562 54.875 25.726562 54.324219 25.949219 53.898438 L 26.375 53.125 L 26.449219 53.851562 C 26.5 54.25 26.300781 55.25 26 56.101562 Z M 109.425781 56.675781 C 109.300781 59.476562 109.125 60.25 108.675781 60.25 C 108.5 60.25 108.476562 59.300781 108.601562 57.351562 C 108.75 54.351562 108.824219 54 109.300781 54 C 109.476562 54 109.523438 54.851562 109.425781 56.675781 Z M 31.25 56.675781 C 32.101562 58.5 32.148438 59.226562 31.824219 65.625 L 31.625 69.625 L 30.25 69.550781 C 29.5 69.5 28.824219 69.398438 28.773438 69.351562 C 28.449219 69.023438 28.398438 66.976562 28.675781 65.875 C 28.851562 65.175781 29.074219 63.925781 29.148438 63.050781 C 29.25 62.050781 29.425781 61.5 29.648438 61.5 C 29.824219 61.5 30.023438 61.648438 30.101562 61.800781 C 30.175781 61.976562 30.199219 60.75 30.148438 59.050781 C 30.050781 56.273438 30.074219 56 30.476562 56 C 30.726562 56 31.074219 56.300781 31.25 56.675781 Z M 106.523438 57.898438 C 106.648438 58.273438 106.699219 58.648438 106.601562 58.726562 C 106.398438 58.925781 105.476562 57.75 105.648438 57.476562 C 105.898438 57.050781 106.25 57.25 106.523438 57.898438 Z M 112.800781 61.925781 C 112.675781 63.125 111.675781 65.625 111.226562 65.898438 C 110.824219 66.125 110.648438 65.800781 110.949219 65.425781 C 111.101562 65.25 111.324219 64.273438 111.449219 63.25 C 111.601562 62.226562 111.824219 61.023438 112 60.625 C 112.273438 59.925781 112.324219 59.898438 112.601562 60.324219 C 112.824219 60.601562 112.898438 61.175781 112.800781 61.925781 Z M 83.625 62.273438 C 83.773438 62.425781 83.601562 62.75 83.175781 63.199219 L 82.5 63.875 L 77.800781 63.925781 C 75.226562 63.949219 73.300781 63.925781 73.5 63.851562 C 73.699219 63.773438 74.101562 63.625 74.375 63.5 C 75.175781 63.148438 76.773438 62.699219 78.125 62.476562 C 78.824219 62.375 79.824219 62.175781 80.375 62.023438 C 81.449219 61.773438 83.226562 61.898438 83.625 62.273438 Z M 33.5 65.550781 C 33.5 66 33.449219 66.050781 33.273438 65.75 C 33.125 65.550781 33.101562 65.300781 33.148438 65.199219 C 33.375 64.851562 33.5 64.976562 33.5 65.550781 Z M 15.949219 66.125 C 15.875 66.199219 15.726562 66.074219 15.648438 65.824219 C 15.5 65.476562 15.523438 65.449219 15.773438 65.675781 C 15.949219 65.851562 16.023438 66.050781 15.949219 66.125 Z M 46.800781 66.074219 C 47.449219 66.375 48 66.699219 48 66.800781 C 48 66.925781 46.699219 67 45.125 67 C 42.675781 67 42.273438 66.949219 42.398438 66.625 C 42.5 66.425781 42.425781 66.25 42.273438 66.25 C 41.601562 66.25 42.074219 65.773438 42.824219 65.699219 C 45.074219 65.476562 45.675781 65.550781 46.800781 66.074219 Z M 110.25 67.375 C 110.25 67.800781 109.125 68.949219 108.851562 68.824219 C 108.324219 68.625 108.425781 68.074219 109.050781 67.648438 C 109.601562 67.25 110.25 67.125 110.25 67.375 Z M 73.773438 70.675781 C 73.976562 71.199219 73.925781 71.25 73.023438 71.25 C 72.449219 71.25 71.824219 71.050781 71.5 70.800781 L 70.925781 70.324219 L 71.75 69.125 L 72.601562 67.898438 L 73.074219 69.023438 C 73.324219 69.625 73.648438 70.375 73.773438 70.675781 Z M 20 69.199219 C 20 69.523438 19.699219 69.75 19.449219 69.601562 C 19.199219 69.449219 19.425781 69 19.773438 69 C 19.898438 69 20 69.101562 20 69.199219 Z M 109.25 70.625 C 109.25 70.976562 109.148438 71.25 109 71.25 C 108.875 71.25 108.273438 71.675781 107.726562 72.175781 C 106.75 73.050781 106.699219 73.074219 106.875 72.5 C 107.476562 70.601562 107.851562 70 108.550781 70 C 109.125 70 109.25 70.101562 109.25 70.625 Z M 51.523438 70.5 C 52.375 70.976562 52.125 71.925781 51 72.5 C 49.851562 73.074219 49.574219 73.125 49.976562 72.675781 C 50.125 72.476562 50.199219 72.273438 50.125 72.199219 C 49.976562 72.050781 50.699219 70.25 50.898438 70.25 C 50.976562 70.25 51.25 70.375 51.523438 70.5 Z M 88.199219 70.925781 C 88.523438 71.25 88.625 71.800781 88.601562 73.375 C 88.601562 75.5 88.101562 77.324219 87.726562 76.699219 C 87.476562 76.300781 87.351562 76.675781 87.148438 78.25 C 87.050781 78.875 86.976562 79.601562 86.925781 79.875 C 86.898438 80.148438 86.773438 80.523438 86.648438 80.726562 C 86.523438 80.925781 86.398438 81.324219 86.351562 81.601562 C 86.125 83.273438 85.25 85.773438 84.5 86.800781 C 84.023438 87.476562 83.574219 88 83.449219 88 C 83.351562 88 83.25 88.148438 83.25 88.351562 C 83.25 88.523438 83.023438 88.75 82.726562 88.824219 C 82.050781 89 79.523438 88.726562 79.351562 88.476562 C 79.273438 88.351562 78.875 88.25 78.425781 88.25 C 77.675781 88.25 76.050781 87.324219 75.199219 86.425781 C 74.976562 86.175781 74.699219 85.976562 74.574219 85.976562 C 74.148438 86 73.5 85.699219 73.5 85.5 C 73.5 85.375 72.875 85.074219 72.125 84.875 C 71.175781 84.574219 70.601562 84.25 70.25 83.726562 C 69.949219 83.324219 69.574219 83 69.398438 83 C 69.050781 83 68.976562 82.675781 68.976562 81.425781 C 69 81 69 80.273438 69 79.875 C 69 79.449219 69.125 78.699219 69.273438 78.199219 C 69.5 77.476562 69.5 77.175781 69.25 76.875 C 68.5 75.976562 70 74.425781 71.074219 75.023438 C 71.699219 75.398438 75.351562 75.550781 76.75 75.273438 C 80.300781 74.601562 80.875 74.375 81.976562 73.375 C 82.574219 72.824219 83.324219 72.125 83.675781 71.800781 C 84.023438 71.5 84.601562 71.25 85.023438 71.25 C 85.449219 71.25 85.949219 71.074219 86.148438 70.875 C 86.648438 70.375 87.675781 70.398438 88.199219 70.925781 Z M 113.75 70.75 C 113.75 70.875 113.648438 71 113.5 71 C 113.375 71 113.25 70.875 113.25 70.75 C 113.25 70.601562 113.375 70.5 113.5 70.5 C 113.648438 70.5 113.75 70.601562 113.75 70.75 Z M 68.976562 71.851562 C 69.601562 73.300781 69.449219 74.050781 68.523438 73.851562 C 67.425781 73.574219 67.175781 73.25 67.351562 72.148438 C 67.449219 71.625 67.574219 71.074219 67.648438 70.949219 C 67.949219 70.449219 68.523438 70.824219 68.976562 71.851562 Z M 28.601562 71.398438 C 28.800781 71.949219 28.625 72.148438 27.800781 72.324219 C 27.125 72.449219 27.074219 72.574219 27.101562 73.425781 C 27.125 74.25 27.050781 74.375 26.625 74.300781 C 25.550781 74.101562 25.648438 72.699219 26.773438 72.226562 C 27.199219 72.074219 27.625 71.726562 27.773438 71.476562 C 28.074219 70.898438 28.398438 70.875 28.601562 71.398438 Z M 44.398438 71.800781 L 44.824219 72.625 L 44.273438 72.148438 C 44 71.875 43.75 71.523438 43.75 71.324219 C 43.75 70.800781 43.949219 70.949219 44.398438 71.800781 Z M 21.449219 72.300781 C 21.375 72.476562 21.125 72.675781 20.851562 72.726562 C 20.449219 72.800781 20.425781 72.75 20.726562 72.398438 C 21.125 71.925781 21.574219 71.875 21.449219 72.300781 Z M 99.175781 75.125 C 99.226562 77.675781 99.148438 77.800781 97.851562 77.449219 C 97.25 77.300781 97.023438 77.074219 96.925781 76.574219 C 96.851562 76.175781 96.898438 75.75 97 75.625 C 97.125 75.476562 97.398438 74.800781 97.625 74.125 C 98.550781 71.425781 99.101562 71.800781 99.175781 75.125 Z M 55.148438 73.925781 C 55.101562 74 54.925781 73.976562 54.773438 73.875 C 54.574219 73.773438 54.601562 73.550781 54.800781 73.175781 L 55.125 72.625 L 55.199219 73.199219 C 55.25 73.523438 55.226562 73.851562 55.148438 73.925781 Z M 118.550781 74.675781 C 119.351562 75.398438 118.949219 77 117.949219 77 C 117 77 116.601562 75 117.449219 74.523438 C 118.023438 74.175781 118.023438 74.175781 118.550781 74.675781 Z M 25.199219 75.773438 C 25.273438 76.550781 25.148438 76.773438 24.550781 77.199219 C 24.175781 77.476562 23.523438 77.800781 23.125 77.898438 C 22.449219 78.074219 22.425781 78.050781 22.625 77.351562 C 22.75 76.949219 22.824219 76.398438 22.824219 76.101562 C 22.800781 75.523438 23.875 74.773438 24.625 74.824219 C 25 74.875 25.148438 75.074219 25.199219 75.773438 Z M 42.675781 76.5 C 43.925781 77.199219 44.148438 77.25 46.726562 77.25 C 48.625 77.25 49.574219 77.148438 49.800781 76.925781 C 50.324219 76.425781 52.023438 76.023438 53.25 76.101562 C 54.351562 76.199219 54.375 76.226562 54.523438 77.148438 C 54.625 77.699219 54.601562 78.324219 54.476562 78.550781 C 54.351562 78.773438 54.25 79.375 54.25 79.851562 C 54.25 80.351562 54.148438 80.75 54 80.75 C 53.851562 80.75 53.75 81.476562 53.75 82.398438 C 53.75 83.398438 53.851562 83.976562 54 83.875 C 54.574219 83.523438 53.824219 84.726562 52.648438 86.050781 C 51.949219 86.824219 51.148438 87.75 50.875 88.101562 C 50.601562 88.449219 50.148438 88.773438 49.875 88.824219 C 49.601562 88.875 49.125 89.050781 48.824219 89.199219 C 48.5 89.375 48.25 89.449219 48.25 89.375 C 48.25 89.273438 48.074219 89.398438 47.851562 89.601562 C 47.601562 89.851562 47.023438 90 46.300781 90 C 45 90 44.675781 89.851562 44.425781 89.175781 C 44.324219 88.925781 44.125 88.800781 43.976562 88.875 C 43.824219 88.976562 43.648438 88.824219 43.574219 88.523438 C 43.5 88.226562 43.25 88 42.976562 88 C 42.699219 88 42.5 87.824219 42.5 87.625 C 42.5 87.425781 42.398438 87.25 42.25 87.25 C 42.125 87.25 41.898438 86.773438 41.75 86.175781 C 41.199219 84.074219 40.949219 83.351562 40.300781 82 C 39.800781 80.949219 39.625 80.148438 39.574219 78.675781 C 39.5 76.824219 39.523438 76.726562 40.101562 76.5 C 40.425781 76.375 40.773438 76.148438 40.875 76.023438 C 41.101562 75.648438 41.175781 75.675781 42.675781 76.5 Z M 98.25 80.25 C 98.25 80.648438 98.148438 81 98 81 C 97.875 81 97.75 80.648438 97.75 80.25 C 97.75 79.824219 97.875 79.5 98 79.5 C 98.148438 79.5 98.25 79.824219 98.25 80.25 Z M 24.25 81.949219 C 24.25 82.5 24.125 82.648438 23.699219 82.648438 C 23.375 82.648438 23.050781 82.550781 22.949219 82.398438 C 22.699219 82 23.226562 81.25 23.75 81.25 C 24.125 81.25 24.25 81.425781 24.25 81.949219 Z M 18.351562 84.050781 C 18.625 86.25 18.824219 87.148438 19.175781 87.675781 C 19.425781 88.050781 19.476562 88.351562 19.300781 88.625 C 19.125 88.976562 18.898438 88.824219 18.050781 87.75 C 17.023438 86.476562 17 86.375 17 84.625 C 17 83.648438 17.074219 82.75 17.148438 82.675781 C 17.550781 82.273438 18.199219 83.050781 18.351562 84.050781 Z M 22.699219 84.324219 C 22.800781 85.050781 22.074219 85.601562 21.398438 85.351562 C 20.851562 85.148438 20.898438 84.75 21.574219 84.074219 C 22.25 83.398438 22.601562 83.476562 22.699219 84.324219 Z M 25.5 85.601562 C 25.050781 86.175781 24.75 86.101562 24.75 85.425781 C 24.75 84.625 25.023438 84.425781 25.476562 84.851562 C 25.773438 85.148438 25.773438 85.300781 25.5 85.601562 Z M 67.925781 87.148438 C 67.851562 87.226562 67.625 87.25 67.449219 87.175781 C 67.25 87.101562 67.324219 87.023438 67.601562 87.023438 C 67.875 87 68.023438 87.074219 67.925781 87.148438 Z M 68.5 87.75 C 68.5 87.875 68.398438 88 68.25 88 C 68.125 88 68 87.875 68 87.75 C 68 87.601562 68.125 87.5 68.25 87.5 C 68.398438 87.5 68.5 87.601562 68.5 87.75 Z M 73.898438 87.875 C 74.625 88.074219 74.976562 89.648438 74.375 90.101562 C 74.101562 90.300781 73.925781 91 73.800781 92.5 C 73.625 94.625 73.625 94.625 72.75 95.050781 C 72.273438 95.273438 71.476562 95.523438 71 95.601562 C 69.351562 95.800781 66.023438 96.523438 64.976562 96.875 C 63.773438 97.300781 61.5 97.199219 59.25 96.625 C 58.5 96.425781 57.351562 96.199219 56.699219 96.125 C 55.898438 96.023438 55.273438 95.75 54.773438 95.273438 L 54.023438 94.574219 L 54.675781 93.675781 L 55.300781 92.773438 L 56.976562 92.875 C 57.875 92.949219 58.976562 93.125 59.375 93.273438 C 60.574219 93.75 62.875 93.351562 63.476562 92.601562 C 64 91.949219 65.425781 91.25 66.25 91.25 C 66.523438 91.25 66.824219 91.074219 66.898438 90.875 C 67 90.675781 67.324219 90.5 67.675781 90.5 C 68.023438 90.5 68.574219 90.273438 68.925781 90 C 69.273438 89.726562 69.773438 89.5 70.023438 89.5 C 70.25 89.5 70.5 89.425781 70.550781 89.300781 C 70.75 88.824219 72.648438 87.523438 73 87.601562 C 73.199219 87.675781 73.625 87.773438 73.898438 87.875 Z M 27.425781 90.574219 C 27.648438 92 27.375 92.699219 26.648438 92.574219 C 25.625 92.375 25.523438 90.75 26.449219 89.675781 C 26.925781 89.125 27.226562 89.398438 27.425781 90.574219 Z M 47.75 97 C 48 97 48.300781 97.25 48.398438 97.550781 C 48.476562 97.851562 48.875 98.351562 49.273438 98.699219 C 49.675781 99.023438 50 99.425781 50 99.601562 C 50 99.773438 50.226562 100.125 50.5 100.375 C 50.773438 100.625 51 100.949219 51 101.101562 C 51.023438 101.25 51.273438 101.898438 51.574219 102.550781 C 52.273438 104.074219 52.226562 105.875 51.449219 106.074219 C 51.050781 106.199219 51 106.351562 51.125 107.101562 C 51.226562 107.601562 51.226562 108.175781 51.148438 108.398438 C 51 108.773438 50.949219 108.773438 50.476562 108.351562 C 49.851562 107.773438 49 106.199219 49 105.574219 C 49 105.351562 48.726562 104.875 48.398438 104.523438 C 47.824219 103.898438 46.449219 100.851562 46.101562 99.425781 C 46.023438 99.050781 45.851562 98.675781 45.726562 98.601562 C 45.074219 98.199219 46.199219 96.574219 46.949219 96.875 C 47.125 96.949219 47.5 97 47.75 97 Z M 74.25 97.476562 C 74.25 97.800781 73.675781 98.199219 73.023438 98.300781 C 72.601562 98.351562 72.351562 98.625 72.148438 99.25 C 71.898438 100.050781 71.773438 100.125 70.824219 100.199219 C 70.101562 100.25 69.675781 100.425781 69.5 100.75 C 69.074219 101.550781 68.476562 102 67.851562 102 C 67.5 102 66.949219 102.175781 66.625 102.398438 C 66.125 102.726562 65.851562 102.75 65.226562 102.523438 C 64.125 102.148438 63.476562 102.175781 62.523438 102.648438 C 61.976562 102.925781 61.425781 103 60.800781 102.875 C 60.300781 102.800781 59.449219 102.699219 58.925781 102.675781 C 58.25 102.648438 57.800781 102.449219 57.476562 102.023438 C 57.125 101.601562 56.824219 101.476562 56.324219 101.574219 C 55.425781 101.75 54.5 100.726562 54.5 99.5 C 54.5 99.050781 54.648438 98.976562 55.574219 99 C 56.148438 99.023438 57.300781 98.898438 58.125 98.726562 C 58.949219 98.550781 60.523438 98.375 61.625 98.351562 C 62.726562 98.300781 64.523438 98.199219 65.625 98.125 C 66.726562 98.023438 68.425781 97.925781 69.375 97.875 C 70.351562 97.824219 71.625 97.675781 72.25 97.550781 C 73.773438 97.226562 74.25 97.199219 74.25 97.476562 Z M 62 109.398438 C 62 109.601562 61.851562 109.75 61.648438 109.75 C 61.425781 109.75 61.351562 109.574219 61.425781 109.25 C 61.574219 108.699219 62 108.800781 62 109.398438 Z M 67.25 109.875 C 67.25 110.476562 66.226562 110.824219 65.398438 110.5 C 64.824219 110.273438 64.75 110.175781 65 109.875 C 65.425781 109.351562 67.25 109.375 67.25 109.875 Z M 64.074219 112.925781 C 63.898438 112.976562 63.601562 112.976562 63.449219 112.925781 C 63.273438 112.851562 63.398438 112.800781 63.75 112.800781 C 64.101562 112.800781 64.226562 112.851562 64.074219 112.925781 Z M 64.074219 112.925781 "/>
<path style=" stroke:none;fill-rule:nonzero;fill:rgb(0%,0%,0%);fill-opacity:1;" d="M 59.824219 46.949219 C 59.648438 47.050781 59.449219 47.875 59.375 48.75 C 59.175781 50.898438 59.625 51.675781 61.375 52.175781 C 64 52.949219 64.875 52.5 65.175781 50.324219 C 65.324219 49.273438 64.726562 48.023438 64.074219 48 C 63.925781 48 63.574219 47.75 63.324219 47.425781 C 62.976562 46.949219 62.601562 46.824219 61.5 46.800781 C 60.75 46.773438 60 46.824219 59.824219 46.949219 Z M 59.824219 46.949219 "/>
<path style=" stroke:none;fill-rule:nonzero;fill:rgb(0%,0%,0%);fill-opacity:1;" d="M 75.25 110.75 C 75.25 110.875 75.425781 111 75.625 111 C 75.824219 111 76 110.875 76 110.75 C 76 110.601562 75.824219 110.5 75.625 110.5 C 75.425781 110.5 75.25 110.601562 75.25 110.75 Z M 75.25 110.75 "/>
<path style=" stroke:none;fill-rule:nonzero;fill:rgb(0%,0%,0%);fill-opacity:1;" d="M 74.398438 111.898438 C 74.324219 112.125 74.25 112.574219 74.25 112.925781 C 74.25 113.476562 74.273438 113.5 74.648438 113.148438 C 74.851562 112.925781 75.101562 112.75 75.199219 112.75 C 75.300781 112.75 75.523438 112.648438 75.726562 112.523438 C 76.023438 112.324219 76.023438 112.226562 75.675781 111.898438 C 75.175781 111.398438 74.601562 111.398438 74.398438 111.898438 Z M 74.398438 111.898438 "/>
</g>
</svg>
